# xmcd
#
# Track frame offsets: 
#        150
#        19538
#        37577
#        53808
#        70813
#        85837
#        113498
#        132607
#        151460
#        168942
#
# Disc length: 2648 seconds
#
# Revision: 0
# Processed by: cddbd v1.5.2PL0 Copyright (c) Steve Scherf et al.
# Submitted via: ExactAudioCopyFreeDBPlugin 1.0
#
DISCID=710a560a
DTITLE=Rory Block - A Womans's Soul: A Tribute To Bessie Smith
DYEAR=2018
DGENRE=Blues
TTITLE0=Do Your Duty
TTITLE1=Kitchen Man
TTITLE2=Jazzbro Brown From Memphis Town
TTITLE3=Gimme A Pigfoot And A Bottle Of Beer
TTITLE4=Need A Little Sugar In My Bowl
TTITLE5=I'm Down In The Dumps
TTITLE6=Black Mountain
TTITLE7=Weeping Willow Blues
TTITLE8=On Revival Day
TTITLE9=Empty Bed Blues
EXTD=
EXTT0=
EXTT1=
EXTT2=
EXTT3=
EXTT4=
EXTT5=
EXTT6=
EXTT7=
EXTT8=
EXTT9=
PLAYORDER=
